<?xml version="1.0" standalone="no"?>
<!DOCTYPE svg PUBLIC "-//W3C//DTD SVG 20010904//EN"
 "http://www.w3.org/TR/2001/REC-SVG-20010904/DTD/svg10.dtd">
<svg version="1.0" xmlns="http://www.w3.org/2000/svg"
 width="700.000000pt" height="700.000000pt" viewBox="0 0 700.000000 700.000000"
 preserveAspectRatio="xMidYMid meet">
<metadata>
Created by potrace 1.14, written by Peter Selinger 2001-2017
</metadata>
<g transform="translate(0.000000,700.000000) scale(0.100000,-0.100000)"
fill="#000000" stroke="none">
<path d="M2045 5893 c-54 -11 -147 -47 -190 -74 l-48 -30 -56 25 c-161 71
-331 44 -456 -75 -89 -84 -136 -188 -140 -311 -4 -133 36 -238 125 -329 l55
-56 -135 1 c-86 1 -151 -3 -179 -11 -100 -29 -191 -107 -238 -203 l-28 -55 0
-315 c1 -305 1 -317 23 -364 31 -69 82 -127 149 -172 48 -32 224 -117 391
-189 23 -11 43 -24 43 -29 1 -6 3 -21 4 -33 4 -44 60 -135 100 -167 84 -65 35
-61 675 -64 638 -3 642 -3 718 55 37 28 74 83 87 128 5 17 10 340 10 718 l2
688 24 17 c138 96 194 249 165 451 -36 253 -276 398 -536 325 -30 -9 -66 -22
-80 -29 -24 -12 -32 -11 -80 16 -94 51 -196 80 -295 83 -49 1 -99 1 -110 -1z
m-737 -1142 l32 -1 0 -350 c0 -192 -2 -350 -5 -350 -20 0 -245 107 -264 126
-24 23 -24 23 -26 266 -2 134 0 253 2 266 10 45 33 48 261 43z"/>
<path d="M3425 3809 c-61 -19 -94 -109 -60 -167 32 -54 59 -62 207 -62 l134 0
42 -77 c23 -43 58 -107 78 -143 136 -243 224 -403 224 -406 0 -2 -297 -4 -659
-4 l-659 0 -81 113 c-44 62 -82 125 -85 139 -6 35 -19 59 -46 83 -21 19 -39
20 -301 23 -237 3 -283 1 -312 -13 -84 -39 -90 -154 -11 -206 27 -17 49 -19
275 -19 l247 0 96 -134 97 -135 -39 -73 c-22 -40 -76 -145 -122 -233 -94 -182
-98 -188 -114 -177 -6 5 -36 14 -66 21 -30 6 -75 16 -100 21 -74 16 -284 5
-375 -20 -349 -94 -612 -371 -684 -719 -95 -466 171 -930 620 -1081 73 -25 73
-25 181 -41 359 -52 744 136 930 456 22 39 41 75 42 80 1 6 7 20 14 31 16 30
62 192 62 220 l0 24 250 0 c308 0 301 -2 363 107 25 43 50 83 56 90 6 7 11 15
11 18 0 4 55 100 121 213 67 114 131 223 142 242 54 96 341 586 347 593 7 8
30 -26 88 -134 17 -31 53 -97 81 -147 28 -49 51 -94 51 -98 0 -5 -30 -35 -66
-68 -399 -357 -413 -983 -29 -1363 271 -268 668 -346 1024 -199 199 81 378
250 478 451 190 380 95 847 -228 1125 -124 107 -258 173 -424 210 -122 26
-305 22 -420 -10 -129 -36 -120 -36 -142 7 -11 21 -119 216 -240 433 -121 217
-235 422 -253 455 -46 84 -74 134 -97 175 -11 19 -62 111 -113 203 -67 122
-101 174 -123 187 -26 16 -53 19 -206 19 -97 -1 -189 -5 -206 -10z m607 -1132
c-19 -31 -98 -166 -235 -402 -38 -66 -80 -137 -93 -157 -13 -21 -24 -39 -24
-42 0 -12 -142 -241 -148 -238 -4 2 -69 89 -144 195 -76 106 -144 201 -152
212 -48 64 -326 458 -326 461 0 1 257 3 571 3 l570 0 -19 -32z m-1165 -234
c54 -75 105 -147 113 -159 8 -13 110 -154 225 -315 116 -161 214 -298 218
-306 5 -8 -3 -32 -20 -64 l-28 -50 -563 4 c-309 3 -565 7 -568 10 -5 5 103
221 186 372 15 28 77 147 138 265 137 267 196 380 199 380 1 0 46 -62 100
-137z m-725 -323 c35 -6 71 -13 81 -16 19 -6 33 25 -213 -444 -103 -195 -114
-235 -80 -288 39 -63 11 -60 623 -62 l169 0 -7 -32 c-13 -62 -61 -174 -98
-230 -246 -370 -759 -425 -1076 -115 -129 126 -193 266 -207 453 -24 325 195
634 511 718 33 8 69 17 80 19 51 8 160 7 217 -3z m3058 -11 c407 -103 634
-526 491 -917 -84 -231 -276 -397 -516 -447 -366 -75 -729 154 -819 518 -43
173 -14 375 76 525 34 55 143 182 158 182 7 0 40 -58 290 -509 67 -120 99
-151 155 -151 36 0 89 31 106 61 20 39 13 96 -20 150 -17 27 -31 51 -31 54 0
2 -63 117 -140 256 -77 138 -140 255 -140 259 0 8 37 18 100 27 19 3 37 7 40
10 11 11 183 -1 250 -18z"/>
</g>
</svg>
